<svg xmlns="http://www.w3.org/2000/svg" viewBox="0 0 400 600">
  <defs>
    <linearGradient id="skin3" x1="0" y1="0" x2="0" y2="1">
      <stop offset="0%" stop-color="#F0D0B4"/>
      <stop offset="100%" stop-color="#E0B898"/>
    </linearGradient>
    <linearGradient id="skinShade3" x1="0" y1="0" x2="1" y2="1">
      <stop offset="0%" stop-color="#E0B898"/>
      <stop offset="100%" stop-color="#CCA07A"/>
    </linearGradient>
    <linearGradient id="hair3a" x1="0" y1="0" x2="0" y2="1">
      <stop offset="0%" stop-color="#8B4513"/>
      <stop offset="50%" stop-color="#6B3410"/>
      <stop offset="100%" stop-color="#4A2208"/>
    </linearGradient>
    <linearGradient id="vest3" x1="0" y1="0" x2="0" y2="1">
      <stop offset="0%" stop-color="#006838"/>
      <stop offset="50%" stop-color="#004D2A"/>
      <stop offset="100%" stop-color="#00331C"/>
    </linearGradient>
    <radialGradient id="iris3" cx="45%" cy="40%" r="50%">
      <stop offset="0%" stop-color="#4A7A4A"/>
      <stop offset="60%" stop-color="#2E5A2E"/>
      <stop offset="100%" stop-color="#1A3A1A"/>
    </radialGradient>
    <linearGradient id="lip3" x1="0" y1="0" x2="0" y2="1">
      <stop offset="0%" stop-color="#C86070"/>
      <stop offset="100%" stop-color="#A84858"/>
    </linearGradient>
  </defs>

  <!-- Shirt -->
  <path d="M135,352 Q118,390 102,600 L298,600 Q282,390 265,352 Q245,342 200,346 Q155,342 135,352Z" fill="white"/>
  <!-- Vest -->
  <path d="M140,356 Q126,398 114,600 L190,600 L190,378Z" fill="url(#vest3)"/>
  <path d="M260,356 Q274,398 286,600 L210,600 L210,378Z" fill="url(#vest3)"/>
  <!-- Vest highlight -->
  <path d="M142,358 Q132,398 120,520" stroke="#008844" stroke-width="1" fill="none" opacity="0.3"/>
  <path d="M258,358 Q268,398 280,520" stroke="#008844" stroke-width="1" fill="none" opacity="0.3"/>
  <!-- Shirt collar -->
  <path d="M162,352 L192,382 L200,376 L208,382 L238,352" fill="white" stroke="#DDD" stroke-width="0.5"/>
  <!-- Bowtie -->
  <path d="M190,358 L200,366 L210,358 L200,362Z" fill="#8B0000"/>
  <path d="M193,356 L200,362 L207,356 L200,360Z" fill="#A01010"/>
  <circle cx="200" cy="360" r="2.5" fill="#6B0000"/>
  <!-- Vest buttons -->
  <circle cx="200" cy="398" r="2.5" fill="#FFD700" opacity="0.7"/>
  <circle cx="200" cy="428" r="2.5" fill="#FFD700" opacity="0.7"/>
  <circle cx="200" cy="458" r="2.5" fill="#FFD700" opacity="0.7"/>

  <!-- Neck -->
  <path d="M180,318 Q182,346 200,350 Q218,346 220,318Z" fill="url(#skin3)"/>
  <path d="M184,338 Q200,348 216,338" fill="#CCA07A" opacity="0.3"/>

  <!-- Hair back -->
  <ellipse cx="200" cy="192" rx="98" ry="118" fill="url(#hair3a)"/>
  <!-- Shoulder-length hair -->
  <path d="M102,192 Q96,270 94,360 Q102,364 110,360 Q110,280 115,210Z" fill="url(#hair3a)" opacity="0.9"/>
  <path d="M298,192 Q304,270 306,360 Q298,364 290,360 Q290,280 285,210Z" fill="url(#hair3a)" opacity="0.9"/>

  <!-- Face -->
  <ellipse cx="200" cy="216" rx="75" ry="92" fill="url(#skin3)"/>
  <path d="M135,240 Q150,308 200,318 Q250,308 265,240" fill="url(#skinShade3)" opacity="0.15"/>
  <ellipse cx="150" cy="248" rx="18" ry="22" fill="#E0B898" opacity="0.2"/>
  <ellipse cx="250" cy="248" rx="18" ry="22" fill="#E0B898" opacity="0.2"/>

  <!-- Hair front -->
  <path d="M125,195 Q140,132 200,118 Q260,132 275,195 Q260,166 238,155 Q218,168 200,156 Q182,168 162,155 Q140,166 125,195Z" fill="url(#hair3a)"/>
  <!-- Soft side-swept bangs -->
  <path d="M125,195 Q123,175 135,155 Q128,172 126,192Z" fill="#7A3A12" opacity="0.4"/>
  <!-- Side framing -->
  <path d="M113,198 Q110,235 112,272 Q118,275 124,270 Q123,240 126,202Z" fill="url(#hair3a)" opacity="0.85"/>
  <path d="M287,198 Q290,235 288,272 Q282,275 276,270 Q277,240 274,202Z" fill="url(#hair3a)" opacity="0.85"/>

  <!-- Eyebrows -->
  <path d="M152,196 Q166,188 180,192" stroke="#4A2208" stroke-width="2.8" fill="none" stroke-linecap="round"/>
  <path d="M220,192 Q234,188 248,196" stroke="#4A2208" stroke-width="2.8" fill="none" stroke-linecap="round"/>

  <!-- Eyes - Left (green) -->
  <ellipse cx="166" cy="218" rx="16" ry="12" fill="white"/>
  <ellipse cx="168" cy="219" rx="10" ry="10" fill="url(#iris3)"/>
  <ellipse cx="169" cy="218" rx="5.5" ry="5.5" fill="#0A1A0A"/>
  <ellipse cx="172" cy="215" rx="2.5" ry="2" fill="white" opacity="0.85"/>
  <ellipse cx="165" cy="221" rx="1.5" ry="1.2" fill="white" opacity="0.3"/>
  <path d="M150,210 Q158,205 168,207 Q176,205 182,210" stroke="#8A7060" stroke-width="1" fill="none" opacity="0.4"/>
  <path d="M150,214 Q158,208 168,210 Q176,208 182,214" stroke="#4A2A18" stroke-width="1.8" fill="none"/>
  <path d="M152,225 Q166,228 180,225" stroke="#8B7355" stroke-width="0.7" fill="none" opacity="0.3"/>

  <!-- Eyes - Right -->
  <ellipse cx="234" cy="218" rx="16" ry="12" fill="white"/>
  <ellipse cx="232" cy="219" rx="10" ry="10" fill="url(#iris3)"/>
  <ellipse cx="231" cy="218" rx="5.5" ry="5.5" fill="#0A1A0A"/>
  <ellipse cx="228" cy="215" rx="2.5" ry="2" fill="white" opacity="0.85"/>
  <ellipse cx="235" cy="221" rx="1.5" ry="1.2" fill="white" opacity="0.3"/>
  <path d="M218,210 Q226,205 234,207 Q242,205 250,210" stroke="#8A7060" stroke-width="1" fill="none" opacity="0.4"/>
  <path d="M218,214 Q226,208 234,210 Q242,208 250,214" stroke="#4A2A18" stroke-width="1.8" fill="none"/>
  <path d="M220,225 Q234,228 248,225" stroke="#8B7355" stroke-width="0.7" fill="none" opacity="0.3"/>

  <!-- Nose -->
  <path d="M198,232 Q196,248 193,256 Q197,260 200,261 Q203,260 207,256 Q204,248 202,232" fill="#D0A070" opacity="0.2"/>
  <path d="M193,256 Q197,260 200,261 Q203,260 207,256" stroke="#B88A68" stroke-width="1.1" fill="none"/>
  <line x1="199" y1="232" x2="200" y2="250" stroke="white" stroke-width="1.5" opacity="0.1"/>

  <!-- Cheek blush -->
  <ellipse cx="148" cy="246" rx="14" ry="8" fill="#E8A090" opacity="0.12"/>
  <ellipse cx="252" cy="246" rx="14" ry="8" fill="#E8A090" opacity="0.12"/>

  <!-- Mouth -->
  <path d="M184,276 Q192,270 200,272 Q208,270 216,276" fill="url(#lip3)"/>
  <path d="M184,276 Q192,284 200,285 Q208,284 216,276" fill="url(#lip3)" opacity="0.8"/>
  <path d="M184,276 Q192,274 200,276 Q208,274 216,276" stroke="#A84858" stroke-width="0.5" fill="none"/>
  <ellipse cx="200" cy="282" rx="7" ry="3" fill="white" opacity="0.08"/>

  <!-- Earrings (emerald studs) -->
  <circle cx="120" cy="230" r="4" fill="#006838"/>
  <circle cx="120" cy="230" r="2" fill="#00AA55" opacity="0.6"/>
  <circle cx="280" cy="230" r="4" fill="#006838"/>
  <circle cx="280" cy="230" r="2" fill="#00AA55" opacity="0.6"/>

  <!-- Name tag -->
  <rect x="170" y="490" width="60" height="18" rx="3" fill="#FFD700" opacity="0.9"/>
  <text x="200" y="503" text-anchor="middle" font-size="10" font-family="sans-serif" font-weight="bold" fill="#00331C">DEALER</text>
</svg>