<svg xmlns="http://www.w3.org/2000/svg" viewBox="0 0 100 100">
  <!-- Gold theme - royal crown -->
  <circle cx="50" cy="50" r="50" fill="#FFF8E1"/>
  <circle cx="50" cy="55" r="35" fill="#FFE4C4"/>
  <ellipse cx="50" cy="30" rx="38" ry="25" fill="#DAA520"/>
  <rect x="15" y="28" width="70" height="20" rx="10" fill="#DAA520"/>
  <!-- crown -->
  <polygon points="30,18 35,6 40,15 45,3 50,15 55,3 60,15 65,6 70,18" fill="#FFD700" stroke="#B8860B" stroke-width="0.8"/>
  <rect x="30" y="18" width="40" height="6" rx="1" fill="#FFD700" stroke="#B8860B" stroke-width="0.8"/>
  <circle cx="50" cy="21" r="2" fill="#E53935"/>
  <circle cx="40" cy="21" r="1.5" fill="#1E88E5"/>
  <circle cx="60" cy="21" r="1.5" fill="#1E88E5"/>
  <!-- eyes -->
  <circle cx="38" cy="52" r="5" fill="white"/>
  <circle cx="62" cy="52" r="5" fill="white"/>
  <circle cx="39" cy="53" r="3" fill="#6D4C00"/>
  <circle cx="63" cy="53" r="3" fill="#6D4C00"/>
  <circle cx="40" cy="51" r="1.2" fill="white"/>
  <circle cx="64" cy="51" r="1.2" fill="white"/>
  <ellipse cx="33" cy="60" rx="6" ry="3" fill="#FFE082" opacity="0.5"/>
  <ellipse cx="67" cy="60" rx="6" ry="3" fill="#FFE082" opacity="0.5"/>
  <path d="M44,65 Q50,71 56,65" stroke="#d88" stroke-width="1.5" fill="none"/>
</svg>