<svg xmlns="http://www.w3.org/2000/svg" viewBox="0 0 100 100">
  <!-- Orange theme - energetic -->
  <circle cx="50" cy="50" r="50" fill="#FFF3E0"/>
  <circle cx="50" cy="55" r="35" fill="#FFE4C4"/>
  <ellipse cx="50" cy="30" rx="38" ry="25" fill="#FF8C00"/>
  <rect x="15" y="28" width="70" height="20" rx="10" fill="#FF8C00"/>
  <!-- spiky hair accents -->
  <polygon points="30,20 35,8 40,22" fill="#FF8C00"/>
  <polygon points="45,17 50,4 55,17" fill="#FF8C00"/>
  <polygon points="60,20 65,8 70,22" fill="#FF8C00"/>
  <!-- big excited eyes -->
  <circle cx="38" cy="52" r="6" fill="white"/>
  <circle cx="62" cy="52" r="6" fill="white"/>
  <circle cx="39" cy="53" r="3.5" fill="#8B4500"/>
  <circle cx="63" cy="53" r="3.5" fill="#8B4500"/>
  <circle cx="40" cy="51" r="1.5" fill="white"/>
  <circle cx="64" cy="51" r="1.5" fill="white"/>
  <ellipse cx="33" cy="61" rx="6" ry="3" fill="#FFAB40" opacity="0.5"/>
  <ellipse cx="67" cy="61" rx="6" ry="3" fill="#FFAB40" opacity="0.5"/>
  <!-- big open smile -->
  <path d="M41,64 Q50,76 59,64" stroke="#e66" stroke-width="1.8" fill="#FFCDD2"/>
</svg>