<svg xmlns="http://www.w3.org/2000/svg" viewBox="0 0 100 100">
  <!-- Black/Classic theme -->
  <circle cx="50" cy="50" r="50" fill="#F5F5F5"/>
  <circle cx="50" cy="55" r="35" fill="#FFE4C4"/>
  <ellipse cx="50" cy="30" rx="38" ry="25" fill="#333"/>
  <rect x="15" y="28" width="70" height="20" rx="10" fill="#333"/>
  <!-- neat straight bangs -->
  <rect x="22" y="30" width="56" height="14" rx="3" fill="#333"/>
  <!-- classic round eyes -->
  <circle cx="38" cy="52" r="5" fill="white"/>
  <circle cx="62" cy="52" r="5" fill="white"/>
  <circle cx="39" cy="53" r="3" fill="#1a1a1a"/>
  <circle cx="63" cy="53" r="3" fill="#1a1a1a"/>
  <circle cx="40" cy="51" r="1.2" fill="white"/>
  <circle cx="64" cy="51" r="1.2" fill="white"/>
  <!-- small eyelashes -->
  <line x1="33" y1="49" x2="32" y2="47" stroke="#333" stroke-width="1"/>
  <line x1="43" y1="49" x2="44" y2="47" stroke="#333" stroke-width="1"/>
  <line x1="57" y1="49" x2="56" y2="47" stroke="#333" stroke-width="1"/>
  <line x1="67" y1="49" x2="68" y2="47" stroke="#333" stroke-width="1"/>
  <ellipse cx="33" cy="60" rx="6" ry="3" fill="#FFAB91" opacity="0.4"/>
  <ellipse cx="67" cy="60" rx="6" ry="3" fill="#FFAB91" opacity="0.4"/>
  <path d="M44,65 Q50,71 56,65" stroke="#e88" stroke-width="1.5" fill="none"/>
</svg>